<svg width="48" height="42" viewBox="0 0 48 42" fill="none" xmlns="http://www.w3.org/2000/svg">
  <ellipse cx="24" cy="37" rx="12" ry="3" fill="#4B3323" opacity=".22"/>
  <path d="M12.5 23.8c0-8.2 6.8-14.6 15.1-14.6 7.5 0 12.9 5.6 12.9 13.2 0 8.2-6.1 14.4-14.6 14.4-7.8 0-13.4-5.5-13.4-13z" fill="#F7F2D8"/>
  <path d="M17.8 20.3c2.3-4.3 6.8-6.7 11.6-6.7 4.6 0 8.4 2.1 10.2 5.8-1.3-6.1-5.8-10.2-12-10.2-7.4 0-13.6 5-14.8 12 .9-.6 2.4-.9 5-.9z" fill="#FFF8E6"/>
  <path d="M10.1 21.9c1.4-2.5 4.1-4.1 7.7-4.4 3-.2 5.5.7 6.9 2.4-2.2 1.4-4.2 3.4-5.4 6.3-3.9-.2-7.3-1.6-9.2-4.3z" fill="#E7DDBB"/>
  <path d="M35.1 10.9c1.9-3.1 4.6-4.5 7.4-3.8-.2 3.1-2.2 5.6-5.6 6.9l-1.8-3.1z" fill="#F7F2D8"/>
  <circle cx="34.4" cy="14.9" r="6.7" fill="#F7F2D8"/>
  <path d="M38.3 14.5c1.6-1 3.1-1.1 4.8-.3-1 1.8-2.4 2.8-4.5 2.9l-.3-2.6z" fill="#F2A23A"/>
  <circle cx="36.4" cy="13.4" r="1.2" fill="#28201A"/>
  <path d="M30.9 8.3c.5-2.3 1.8-3.9 4.1-4.6.8 2.3.1 4.4-1.8 5.9l-2.3-1.3z" fill="#DC4B3A"/>
  <path d="M34.2 8c1.3-1.9 3.1-2.8 5.5-2.6.1 2.4-1.1 4.2-3.4 5.1L34.2 8z" fill="#E65943"/>
  <path d="M24 34.4v4.1M30.4 33.4v4.2" stroke="#D08A34" stroke-width="2.2" stroke-linecap="round"/>
  <path d="M21.6 38.5h4.6M28.1 37.7h4.5" stroke="#D08A34" stroke-width="2" stroke-linecap="round"/>
  <path d="M13 22.8c.7 8.2 6.1 13.6 13 13.6 8.1 0 14-5.8 14-14" stroke="#CDBF9D" stroke-width="1.5" stroke-linecap="round" opacity=".75"/>
</svg>
