<svg width="27" height="27" viewBox="0 0 27 27" fill="none" xmlns="http://www.w3.org/2000/svg">
  <defs><radialGradient id="face" cx="0" cy="0" r="1" gradientTransform="translate(9 8) rotate(52) scale(20)"><stop stop-color="#FFFDF3"/><stop offset="1" stop-color="#E8D9B4"/></radialGradient></defs>
  <path d="M4.2 14.3C4 7.7 8.2 3.4 14 4c5.4.6 8.8 5.6 7.8 11.2-.9 5.4-5.5 8.8-10.5 7.6-4.2-1-6.9-4.1-7.1-8.5Z" fill="url(#face)" stroke="#9E8965" stroke-width="1.25"/>
  <path d="M19.4 12.5c3.5-1.7 6-1 7.1 1.1-1.7 2.4-4.4 3.1-7.3 1.6l.2-2.7Z" fill="#F4A63B" stroke="#B96A22" stroke-width="1" stroke-linejoin="round"/>
  <path d="m9 5.3-.3-3.5c2.7-.2 4.3 1.1 4.7 3.6M13 5l1.4-4c2.5.8 3.5 2.6 2.8 5" fill="#E95745" stroke="#A93632" stroke-width="1" stroke-linejoin="round"/>
  <path d="M8 21.2c-1.2 2.1-.4 4 1.9 5 1.8-1.1 2.4-2.7 1.5-4.8" fill="#E95745" stroke="#A93632" stroke-width="1"/>
  <ellipse cx="16.3" cy="10.1" rx="1.8" ry="2" fill="#332820"/><circle cx="16.9" cy="9.4" r=".65" fill="white"/>
  <path d="M7.2 8.6c1.2-1.5 2.8-2.3 4.7-2.5" stroke="white" stroke-width="1.4" stroke-linecap="round" opacity=".75"/>
</svg>
