<svg width="40" height="30" viewBox="0 0 40 30" fill="none" xmlns="http://www.w3.org/2000/svg">
  <defs>
    <linearGradient id="body" x1="9" y1="3" x2="29" y2="28" gradientUnits="userSpaceOnUse"><stop stop-color="#FFFDF1"/><stop offset=".58" stop-color="#F6EBCB"/><stop offset="1" stop-color="#DCCB9E"/></linearGradient>
    <linearGradient id="wing" x1="8" y1="10" x2="23" y2="25" gradientUnits="userSpaceOnUse"><stop stop-color="#F2E4BD"/><stop offset="1" stop-color="#CDBB8D"/></linearGradient>
  </defs>
  <path d="M4.1 16.2C4.1 7.9 11.3 2.6 21 3.1c9.4.4 15.6 6.4 14.7 14.6-.8 7.5-7.4 11-16.2 10.2C10.8 27.2 4.1 23.5 4.1 16.2Z" fill="url(#body)" stroke="#9E8965" stroke-width="1.35"/>
  <path d="M4.8 13.5 1.2 9.1c4.7-.1 7.8 1.4 9.5 4.4L4.8 18v-4.5Z" fill="#EEE0B8" stroke="#9E8965" stroke-width="1.2" stroke-linejoin="round"/>
  <path d="M8 15.6c2.5-4.9 8.3-7.2 14-4.8 4.4 1.9 5.4 6 3.1 9.5-2.6 4-8.6 5.5-13 2.8-2.8-1.7-4.3-4.6-4.1-7.5Z" fill="url(#wing)" stroke="#B6A077" stroke-width="1.1"/>
  <path d="M11.3 14.6c3.4-2.2 7.9-2 11 .5M10.4 18.2c3.7-1.5 8.1-.8 10.5 1.5M14.2 22c2.3-.7 4.7-.4 6.3.7" stroke="#FFF8E5" stroke-width="1.25" stroke-linecap="round" opacity=".9"/>
  <path d="M10.6 7.7c5.3-4.2 14.5-4.1 19.5.7" stroke="#FFF" stroke-width="2" stroke-linecap="round" opacity=".7"/>
</svg>
