<svg width="42" height="29" viewBox="0 0 42 29" fill="none" xmlns="http://www.w3.org/2000/svg">
  <defs>
    <linearGradient id="db" x1="11" y1="2" x2="29" y2="28" gradientUnits="userSpaceOnUse"><stop stop-color="#FFF29A"/><stop offset=".55" stop-color="#F5C94F"/><stop offset="1" stop-color="#D89A2F"/></linearGradient>
    <linearGradient id="dw" x1="9" y1="10" x2="25" y2="24" gradientUnits="userSpaceOnUse"><stop stop-color="#E9B63D"/><stop offset="1" stop-color="#C47D28"/></linearGradient>
  </defs>
  <path d="M4 16.2C4 8.2 11.3 3.1 21.7 3.5c10.1.4 16.4 5.5 15.5 13.4-.8 7.4-8.1 11.1-17.1 10.5C10.6 26.8 4 23.5 4 16.2Z" fill="url(#db)" stroke="#9B6728" stroke-width="1.35"/>
  <path d="m5.2 13.2-4-3.7c4.5-.7 8.1.5 10.2 3.3L5 17.8l.2-4.6Z" fill="#E9B640" stroke="#9B6728" stroke-width="1.2" stroke-linejoin="round"/>
  <path d="M9 15c3-4.5 9-6.2 14.5-3.5 4.3 2.1 5.1 6 2.5 9.1-3 3.6-9 4.7-13.2 2-2.7-1.8-4.1-4.8-3.8-7.6Z" fill="url(#dw)" stroke="#A96C25" stroke-width="1.1"/>
  <path d="M12.5 13.9c3.4-1.8 7.8-1.2 10.7 1.3M11.4 17.5c3.5-1.1 7.7-.2 10 1.9M14.8 21.4c2.1-.4 4.4 0 5.8.9" stroke="#F9D86C" stroke-width="1.25" stroke-linecap="round"/>
  <path d="M11 7.4c5.7-3.8 14.8-3.3 19.7 1.3" stroke="#FFF8BC" stroke-width="2" stroke-linecap="round" opacity=".8"/>
</svg>
