<svg width="29" height="27" viewBox="0 0 29 27" fill="none" xmlns="http://www.w3.org/2000/svg">
  <defs><radialGradient id="dh" cx="0" cy="0" r="1" gradientTransform="translate(9 7) rotate(52) scale(21)"><stop stop-color="#FFF5A8"/><stop offset="1" stop-color="#E5AD36"/></radialGradient></defs>
  <path d="M4 14C3.8 7.2 8.2 2.8 14.3 3.5c5.7.6 9.2 5.5 8.2 11.4-.9 5.5-5.8 9-11 7.8C7 21.7 4.2 18.5 4 14Z" fill="url(#dh)" stroke="#9B6728" stroke-width="1.25"/>
  <path d="M19.2 12c4.4-1.8 7.7-1 9.3 1.5-2.2 2.8-5.9 3.4-9.5 1.5l.2-3Z" fill="#E8912D" stroke="#A85C20" stroke-width="1.05" stroke-linejoin="round"/>
  <path d="M20 13.5h6.4" stroke="#F7B34A" stroke-width=".8" stroke-linecap="round"/>
  <ellipse cx="16.5" cy="9.6" rx="1.9" ry="2.1" fill="#30261D"/><circle cx="17.1" cy="8.9" r=".7" fill="white"/>
  <path d="M7.2 8.2c1.4-1.6 3.1-2.4 5.1-2.6" stroke="#FFFAD0" stroke-width="1.5" stroke-linecap="round"/>
  <path d="M8.2 21.5c1.6 1 3.6 1.5 5.6 1.3" stroke="#C9862A" stroke-width="1" stroke-linecap="round"/>
</svg>
